HIERARCHY
ROOT root
{
  OFFSET 0 87.9003 0
  CHANNELS 6 Xposition Yposition Zposition Zrotation Xrotation Yrotation
  JOINT torso_1
  {
    OFFSET 0 4.78511 -1.08482
    CHANNELS 6 Xposition Yposition Zposition Zrotation Xrotation Yrotation
    JOINT torso_2
    {
      OFFSET 0 5.29195 1.00949
      CHANNELS 6 Xposition Yposition Zposition Zrotation Xrotation Yrotation
      JOINT torso_3
      {
        OFFSET -9.66735e-18 5.64355 0.108362
        CHANNELS 6 Xposition Yposition Zposition Zrotation Xrotation Yrotation
        JOINT torso_4
        {
          OFFSET -1.04072e-17 6.12977 -0.417886
          CHANNELS 6 Xposition Yposition Zposition Zrotation Xrotation Yrotation
          JOINT torso_5
          {
            OFFSET -1.85891e-17 7.16586 -1.41888
            CHANNELS 6 Xposition Yposition Zposition Zrotation Xrotation Yrotation
            JOINT torso_6
            {
              OFFSET -2.38665e-17 8.94839 -0.861631
              CHANNELS 6 Xposition Yposition Zposition Zrotation Xrotation Yrotation
              JOINT torso_7
              {
                OFFSET -2.73615e-17 9.94144 1.48576
                CHANNELS 6 Xposition Yposition Zposition Zrotation Xrotation Yrotation
                JOINT neck_1
                {
                  OFFSET -1.21725e-17 4.50977 0.67399
                  CHANNELS 6 Xposition Yposition Zposition Zrotation Xrotation Yrotation
                  JOINT neck_2
                  {
                    OFFSET -1.70689e-17 4.54241 0.39741
                    CHANNELS 6 Xposition Yposition Zposition Zrotation Xrotation Yrotation
                    JOINT head
                    {
                      OFFSET -1.89342e-17 4.5512 0.720839
                      CHANNELS 6 Xposition Yposition Zposition Zrotation Xrotation Yrotation
                      End Site
                      {
                        OFFSET 0 0.1 0
                      }
                    }
                  }
                }
                JOINT l_shoulder
                {
                  OFFSET 1.16172 -7.16758 7.09827
                  CHANNELS 6 Xposition Yposition Zposition Zrotation Xrotation Yrotation
                  JOINT l_up_arm
                  {
                    OFFSET 12.2059 3.06167 -3.07978
                    CHANNELS 6 Xposition Yposition Zposition Zrotation Xrotation Yrotation
                    JOINT l_low_arm
                    {
                      OFFSET 27.5197 0.056351 0.129118
                      CHANNELS 6 Xposition Yposition Zposition Zrotation Xrotation Yrotation
                      JOINT l_hand
                      {
                        OFFSET 22.8331 0.0467536 0.107129
                        CHANNELS 6 Xposition Yposition Zposition Zrotation Xrotation Yrotation
                        End Site
                        {
                          OFFSET 0.1 0 0
                        }
                      }
                    }
                  }
                }
                JOINT r_shoulder
                {
                  OFFSET -1.16172 -7.16756 7.09818
                  CHANNELS 6 Xposition Yposition Zposition Zrotation Xrotation Yrotation
                  JOINT r_up_arm
                  {
                    OFFSET -12.2059 3.06167 -3.07978
                    CHANNELS 6 Xposition Yposition Zposition Zrotation Xrotation Yrotation
                    JOINT r_low_arm
                    {
                      OFFSET -27.5197 0.056351 0.129118
                      CHANNELS 6 Xposition Yposition Zposition Zrotation Xrotation Yrotation
                      JOINT r_hand
                      {
                        OFFSET -22.8331 0.0467534 0.107129
                        CHANNELS 6 Xposition Yposition Zposition Zrotation Xrotation Yrotation
                        End Site
                        {
                          OFFSET -0.1 0 0
                        }
                      }
                    }
                  }
                }
              }
            }
          }
        }
      }
    }
  }
  JOINT l_up_leg
  {
    OFFSET 8.70282 -3.96247 1.9152
    CHANNELS 6 Xposition Yposition Zposition Zrotation Xrotation Yrotation
    JOINT l_low_leg
    {
      OFFSET -0.803084 -36.5309 -0.617314
      CHANNELS 6 Xposition Yposition Zposition Zrotation Xrotation Yrotation
      JOINT l_foot
      {
        OFFSET -2.19176 -38.0664 -5.69911
        CHANNELS 6 Xposition Yposition Zposition Zrotation Xrotation Yrotation
        JOINT l_toes
        {
          OFFSET 0.734061 -9.31305 11.7736
          CHANNELS 6 Xposition Yposition Zposition Zrotation Xrotation Yrotation
          End Site
          {
            OFFSET 0 0 0.1
          }
        }
      }
    }
  }
  JOINT r_up_leg
  {
    OFFSET -8.70282 -3.96247 1.9152
    CHANNELS 6 Xposition Yposition Zposition Zrotation Xrotation Yrotation
    JOINT r_low_leg
    {
      OFFSET 0.803084 -36.5309 -0.617314
      CHANNELS 6 Xposition Yposition Zposition Zrotation Xrotation Yrotation
      JOINT r_foot
      {
        OFFSET 2.19176 -38.0664 -5.69911
        CHANNELS 6 Xposition Yposition Zposition Zrotation Xrotation Yrotation
        JOINT r_toes
        {
          OFFSET -0.734061 -9.31305 11.7736
          CHANNELS 6 Xposition Yposition Zposition Zrotation Xrotation Yrotation
          End Site
          {
            OFFSET 0 0 0.1
          }
        }
      }
    }
  }
}
MOTION
Frames: 4
Frame Time: 0.016667
-51.7962 81.2782 1077.2 -1.55892 3.6626 -24.521 0 4.78511 -1.08482 -0.416464 -1.05633 2.05347 0 5.29195 1.00949 -0.341056 -0.0749976 1.7948 -9.66735e-18 5.64355 0.108362 -0.361195 1.25447 1.66269 -1.04072e-17 6.12977 -0.417886 -0.352783 2.85231 1.55462 -1.85891e-17 7.16586 -1.41888 -0.0550626 3.79031 1.56908 -2.38665e-17 8.94839 -0.861631 0.438374 4.14859 1.37898 -2.73615e-17 9.94144 1.48576 0.0310287 0.507627 -0.443739 -1.21725e-17 4.50977 0.67399 -3.55105 -10.0577 -13.2078 -1.70689e-17 4.54241 0.39741 2.23059 -8.94256 -6.18007 -1.89342e-17 4.5512 0.720839 4.25556 -7.32406 -0.246622 1.16172 -7.16758 7.09827 -8.23294 4.51285 -4.25981 12.2059 3.06167 -3.07978 -83.1061 2.54407 13.1887 27.5197 0.056351 0.129118 1.3616 -0.0711743 -6.57607 22.8331 0.0467536 0.107129 -1.72264 -29.0853 8.11253 -1.16172 -7.16756 7.09818 -8.92826 -2.31814 0.321976 -12.2059 3.06167 -3.07978 69.6836 27.6988 39.7622 -27.5197 0.056351 0.129118 -7.76028 -2.82275 40.5213 -22.8331 0.0467534 0.107129 13.2675 -69.0953 12.6471 8.70282 -3.96247 1.9152 2.70422 -29.9015 -17.2731 -0.803084 -36.5309 -0.617314 -0.61036 2.27947 -0.0276479 -2.19176 -38.0664 -5.69911 -4.0487 3.43176 15.5813 0.734061 -9.31305 11.7736 -1.20041e-16 -6.7807e-16 -1.82713e-16 -8.70282 -3.96247 1.9152 8.61677 8.04307 23.9531 0.803084 -36.5309 -0.617314 5.73551 20.693 -0.682223 2.19176 -38.0664 -5.69911 -5.53144 -6.76238 -14.6122 -0.734061 -9.31305 11.7736 -3.42357e-16 -3.97021e-16 -1.25875e-14 
-52.5256 81.1382 1080.47 -0.135458 3.28936 -25.8635 0 4.78511 -1.08482 -0.882496 -1.18836 2.32363 0 5.29195 1.00949 -0.791663 -0.216523 2.0107 -9.66735e-18 5.64355 0.108362 -0.718672 1.10729 1.87639 -1.04072e-17 6.12977 -0.417886 -0.614767 2.73466 1.76895 -1.85891e-17 7.16586 -1.41888 -0.164171 3.73835 1.82131 -2.38665e-17 8.94839 -0.861631 0.523118 4.10884 1.61013 -2.73615e-17 9.94144 1.48576 0.0448423 0.538817 -0.436871 -1.21725e-17 4.50977 0.67399 -3.43331 -9.5509 -13.2468 -1.70689e-17 4.54241 0.39741 2.51909 -8.94635 -6.1937 -1.89342e-17 4.5512 0.720839 3.97728 -7.65008 -0.374151 1.16172 -7.16758 7.09827 -7.03859 4.33208 -3.43615 12.2059 3.06167 -3.07978 -84.1955 3.91558 14.8794 27.5197 0.056351 0.129118 1.51986 -0.0896624 -7.34397 22.8331 0.0467536 0.107129 -2.63435 -30.3106 7.4735 -1.16172 -7.16756 7.09818 -8.58606 -2.06878 0.122426 -12.2059 3.06167 -3.07978 70.123 27.6831 39.2869 -27.5197 0.056351 0.129118 -7.77676 -2.8367 40.6246 -22.8331 0.0467534 0.107129 12.6026 -68.4297 12.0552 8.70282 -3.96247 1.9152 1.21126 -30.4249 -17.5981 -0.803084 -36.5309 -0.617314 -1.80621 6.73533 -0.0114034 -2.19176 -38.0664 -5.69911 -3.35521 4.1845 15.4162 0.734061 -9.31305 11.7736 6.90401e-16 -6.43056e-16 -2.13797e-16 -8.70282 -3.96247 1.9152 6.62782 5.9859 22.9788 0.803084 -36.5309 -0.617314 7.54716 26.4873 -1.30649 2.19176 -38.0664 -5.69911 -1.29738 -1.60829 -14.6801 -0.734061 -9.31305 11.7736 -3.795e-16 -3.95416e-16 -1.25887e-14 
-53.2479 80.7972 1083.84 2.55423 7.5318 -26.7719 0 4.78511 -1.08482 -1.22823 -2.25859 2.31989 0 5.29195 1.00949 -1.0907 -1.20225 1.95916 -9.66735e-18 5.64355 0.108362 -0.925791 0.24243 1.81828 -1.04072e-17 6.12977 -0.417886 -0.718843 2.18723 1.70444 -1.85891e-17 7.16586 -1.41888 -0.19133 3.49926 1.75107 -2.38665e-17 8.94839 -0.861631 0.571661 3.87359 1.51387 -2.73615e-17 9.94144 1.48576 0.0593837 0.52454 -0.445269 -1.21725e-17 4.50977 0.67399 -3.3097 -9.56156 -13.0277 -1.70689e-17 4.54241 0.39741 2.78812 -8.58177 -6.01783 -1.89342e-17 4.5512 0.720839 4.12902 -9.1984 -0.048483 1.16172 -7.16758 7.09827 -5.46502 4.04918 -2.39777 12.2059 3.06167 -3.07978 -85.7381 4.66954 16.6679 27.5197 0.056351 0.129118 1.79269 -0.126599 -8.67073 22.8331 0.0467536 0.107129 -4.25141 -31.5929 5.58323 -1.16172 -7.16756 7.09818 -8.82778 -1.86211 -0.441077 -12.2059 3.06167 -3.07978 71.0648 28.894 38.3227 -27.5197 0.056351 0.129118 -7.96257 -2.99754 41.799 -22.8331 0.0467534 0.107129 11.8727 -67.3949 11.919 8.70282 -3.96247 1.9152 0.320697 -36.4168 -17.5968 -0.803084 -36.5309 -0.617314 -3.36422 12.4431 0.148728 -2.19176 -38.0664 -5.69911 -1.17925 3.16934 15.1915 0.734061 -9.31305 11.7736 -2.52564e-16 -6.83796e-16 -1.74658e-16 -8.70282 -3.96247 1.9152 5.28338 -1.11338 22.2608 0.803084 -36.5309 -0.617314 9.63746 32.5272 -2.2311 2.19176 -38.0664 -5.69911 3.13326 4.3895 -15.0446 -0.734061 -9.31305 11.7736 6.28983e-16 -4.38987e-16 -1.26308e-14 
-54.1432 80.6064 1086.85 4.45315 10.3144 -26.3661 0 4.78511 -1.08482 -1.68993 -2.48161 2.27016 0 5.29195 1.00949 -1.51444 -1.58687 1.837 -9.66735e-18 5.64355 0.108362 -1.25097 -0.34535 1.68981 -1.04072e-17 6.12977 -0.417886 -0.937907 1.32818 1.56701 -1.85891e-17 7.16586 -1.41888 -0.332578 2.66533 1.62752 -2.38665e-17 8.94839 -0.861631 0.496345 2.85493 1.40295 -2.73615e-17 9.94144 1.48576 0.0595057 0.607574 -0.430726 -1.21725e-17 4.50977 0.67399 -3.92943 -11.2587 -13.4217 -1.70689e-17 4.54241 0.39741 2.64006 -7.92863 -6.1222 -1.89342e-17 4.5512 0.720839 4.68029 -7.63613 -0.672686 1.16172 -7.16758 7.09827 -5.57726 4.66546 -2.34533 12.2059 3.06167 -3.07978 -85.0169 2.72989 17.6567 27.5197 0.056351 0.129118 1.99341 -0.157899 -9.64952 22.8331 0.0467536 0.107129 -4.03505 -30.4214 5.21304 -1.16172 -7.16756 7.09818 -8.50261 -0.976613 -0.323143 -12.2059 3.06167 -3.07978 72.9446 29.2015 35.7326 -27.5197 0.056351 0.129118 -8.00016 -3.03091 42.0392 -22.8331 0.0467534 0.107129 12.5066 -66.9824 13.1717 8.70282 -3.96247 1.9152 -1.43419 -40.3575 -19.6911 -0.803084 -36.5309 -0.617314 -4.65528 17.0165 0.397295 -2.19176 -38.0664 -5.69911 0.482483 0.407275 15.2762 0.734061 -9.31305 11.7736 1.07267e-15 -6.2654e-16 -2.36778e-16 -8.70282 -3.96247 1.9152 4.01913 -6.58237 21.1444 0.803084 -36.5309 -0.617314 11.9788 38.4468 -3.48732 2.19176 -38.0664 -5.69911 6.23544 10.2753 -15.3508 -0.734061 -9.31305 11.7736 2.28552e-15 -5.10557e-16 -1.27032e-14 
